<svg xmlns="http://www.w3.org/2000/svg" xmlns:xlink="http://www.w3.org/1999/xlink" baseProfile="basic" width="1094.3" height="399.5" xmlns:v="https://vecta.io/nano"><path fill="#43358b" d="M8.6 8.5h164.2V188H8.6z"/><path fill="#f18825" d="M207.1 8.5h164.2V188H207.1z"/><path fill="#cf1348" d="M8.6 211.5h164.2V391H8.6z"/><path fill="#95c11f" d="M207.1 211.5h164.2V391H207.1z"/><linearGradient id="A" gradientUnits="userSpaceOnUse" x1="151.576" y1="152.739" x2="22.814" y2="23.976"><stop offset=".25" stop-color="#43358b"/><stop offset=".39" stop-color="#45368d"/><stop offset=".502" stop-color="#4c3d90"/><stop offset=".604" stop-color="#584998"/><stop offset=".701" stop-color="#6a5ba4"/><stop offset=".794" stop-color="#8375b4"/><stop offset=".884" stop-color="#a298ca"/><stop offset=".97" stop-color="#c8c2e2"/><stop offset="1" stop-color="#d7d2ea"/></linearGradient><path fill="url(#A)" d="M158.8 135.2A24.8 24.8 0 0 1 134 160H40.4a24.8 24.8 0 0 1-24.8-24.8V41.5a24.8 24.8 0 0 1 24.8-24.8H134a24.8 24.8 0 0 1 24.8 24.8v93.7z"/><linearGradient id="B" gradientUnits="userSpaceOnUse" x1="350.785" y1="152.03" x2="223.441" y2="24.686"><stop offset=".25" stop-color="#f18825"/><stop offset=".39" stop-color="#f28a29"/><stop offset=".502" stop-color="#f39033"/><stop offset=".604" stop-color="#f49a44"/><stop offset=".701" stop-color="#f6a75b"/><stop offset=".794" stop-color="#f9b779"/><stop offset=".884" stop-color="#fbcb9d"/><stop offset=".97" stop-color="#fde1c6"/><stop offset="1" stop-color="#fee9d6"/></linearGradient><path fill="url(#B)" d="M357.3 135.2a24.8 24.8 0 0 1-24.8 24.8h-90.8a24.8 24.8 0 0 1-24.8-24.8V41.5a24.8 24.8 0 0 1 24.8-24.8h90.8a24.8 24.8 0 0 1 24.8 24.8v93.7z"/><linearGradient id="C" gradientUnits="userSpaceOnUse" x1="151.576" y1="355.739" x2="22.814" y2="226.977"><stop offset=".25" stop-color="#cf1348"/><stop offset=".384" stop-color="#cf1949"/><stop offset=".491" stop-color="#d1284e"/><stop offset=".589" stop-color="#d43b57"/><stop offset=".682" stop-color="#d85366"/><stop offset=".771" stop-color="#de717b"/><stop offset=".857" stop-color="#e59497"/><stop offset=".939" stop-color="#eebaba"/><stop offset="1" stop-color="#f5d8d7"/></linearGradient><path fill="url(#C)" d="M158.8 338.2A24.8 24.8 0 0 1 134 363H40.4a24.8 24.8 0 0 1-24.8-24.8v-93.7a24.8 24.8 0 0 1 24.8-24.8H134a24.8 24.8 0 0 1 24.8 24.8v93.7z"/><linearGradient id="D" gradientUnits="userSpaceOnUse" x1="350.784" y1="355.03" x2="223.441" y2="227.686"><stop offset=".25" stop-color="#95c11f"/><stop offset=".384" stop-color="#97c223"/><stop offset=".491" stop-color="#9cc42e"/><stop offset=".589" stop-color="#a4c83f"/><stop offset=".682" stop-color="#afcd56"/><stop offset=".771" stop-color="#bdd574"/><stop offset=".857" stop-color="#cddf97"/><stop offset=".939" stop-color="#dee9bc"/><stop offset="1" stop-color="#ecf3da"/></linearGradient><path fill="url(#D)" d="M357.3 338.2a24.8 24.8 0 0 1-24.8 24.8h-90.8a24.8 24.8 0 0 1-24.8-24.8v-93.7a24.8 24.8 0 0 1 24.8-24.8h90.8a24.8 24.8 0 0 1 24.8 24.8v93.7z"/><path d="M278.1 37.7l26-2.9v131.5l-26 2.9V37.7zm11.4 189.7l-70.4 137.3 30 5.5 15.3-33.3h50.2l16.2 34 28.2-6.2-69.5-137.3zm-13.6 83.3l13.8-35.8 13.3 35.8h-27.1z" fill="#fff"/><path fill="none" stroke="#1d1d1b" stroke-width="1.021" d="M130 367c-6.1 3.4-17.1 5.1-23.7 5.1-44.8 0-74.7-31.4-74.7-70.9 0-39.1 30.5-70.9 73.8-70.9 7 0 17.6 1.6 23.5 4.9l4.7 31.4c-7.6-5.7-17.3-9.7-29.4-9.7-25.6 0-43.4 21.3-43.4 44.2 0 25.3 20.3 44.2 44.6 44.2 11.6 0 20.7-5.5 28.3-11.3l-3.7 33z"/><path d="M91.7 118.1L136 24.4l26.5 137-26.3 4.2-10.7-70-34.2 73.7-33.8-75.2-10.8 71.2-25.5-3.8L47.4 24.2l44.3 93.9zM134 330.2C123.1 338 108.7 342 96.4 342c-20.6 0-37.3-18.7-37.3-41.8s16.7-41.8 37.3-41.8c10.2 0 25.2 2.9 36.9 10.5l-4.1-28.8c-9.6-6-20.7-9.4-32.6-9.4-36 0-65.2 31.4-65.2 70.1S60.5 371 96.5 371c11.7 0 22.7-3.3 32.2-9.1l5.3-31.7z" fill="#fff"/><g fill="#666"><path d="M863 61.8c3.5 2.1 9 3.7 14.4 3.7 7.1 0 10.9-3.4 10.9-8.4 0-4.8-3.2-7.7-10.6-10.9-10.1-4.2-16.4-10.5-16.4-19.2 0-11 8.6-19.4 23.1-19.4 6.4 0 11.2 1.5 14.4 3L896 21.2c-2.3-1.2-6.4-2.9-11.9-2.9-6.8 0-9.8 3.7-9.8 7.4 0 4.8 3.3 7 11.5 10.7 10.7 4.8 15.5 11 15.5 19.8 0 11.7-8.8 20.2-24.4 20.2-6.6 0-13.3-1.8-16.4-3.7l2.5-10.9z"/><use xlink:href="#F"/><use xlink:href="#F" x="-383.5" y="211.1"/><path d="M450.1 75.5h-12.3V9.3h19.6L464 40c1.1 5 1.8 10.2 2.3 15.3h.2c.6-6.5 1.1-10.9 1.9-15.3L475 9.3h19.5v66.2h-12.3V54.7c0-13.2.3-26.3 1.1-39.5h-.3l-13.2 60.3h-7.5l-12.9-60.3h-.4c.8 13.2 1.1 26.3 1.1 39.5v20.8zm57.1 0V9.3h34.6V19h-22.3v16.7H540v9.7h-20.5v20.4h22.3v9.7h-34.6zm45.9 0V9.3h25.6c3 0 9 1.3 12.7 7.5 2.8 4.6 3.6 11.9 3.6 22.9 0 13.1 0 28.2-10.1 34.1-2.7 1.6-6.1 1.8-9.1 1.8h-22.7zm17.6-9.7c11 0 11.7-5.8 11.7-25 0-15.6-1.6-21.8-9-21.8h-8.1v46.8h5.4zm37.1 9.7V9.3h12.3v66.2h-12.3zm20.4 0L644 9.3h16.6l14.9 66.2h-13.2l-3.2-16.8h-14.4l-3.2 16.8h-13.3zM646.6 49h10.5l-3.3-18.8c-.6-3.1-.9-6.1-1.2-9.2l-.4-4.4h-.2c-.2 1.4-.4 2.9-.4 4.4l-1.2 9.2-3.8 18.8zm32.5-39.7h41V19h-14.3v56.5h-12.3V19h-14.4V9.3zm49.8 66.2V9.3h12.3v66.2h-12.3zm25-38.4c.5-16.9 1.8-29.4 21.5-29.4s21 12.5 21.5 29.4v9.4c0 17.7-1.3 30.5-21.5 30.5s-21.5-12.9-21.5-30.5v-9.4zm12.6 15.6c0 5.5.4 14.4 8.9 14.4 8.8 0 8.9-9.1 8.9-15.4v-17c0-5.3.3-17-8.9-17-9.7 0-8.9 11.6-8.9 16.7v18.3zm72.4-43.4h12.3v66.2h-12.8l-9.6-23.6c-3.2-7.9-5.9-15.9-8.8-26.3h-.2l1.3 18.9c.4 6.6.6 13.2.6 18.5v12.4h-12.3V9.3h12.7l9.6 24.1c3.2 7.7 5.8 15.5 8.8 26.3h.2l-1.2-18.8c-.4-6.4-.6-12.7-.6-18.6v-13zM438 180.9v-66.2h12.3v66.2H438zm55-66.2h12.3v66.2h-12.8l-9.6-23.6c-3.2-7.9-5.9-15.9-8.8-26.3h-.1l1.3 18.9c.4 6.6.6 13.2.6 18.5v12.4h-12.3v-66.2h12.7l9.6 24.1c3.2 7.7 5.8 15.5 8.8 26.3h.2l-1.2-18.8c-.4-6.4-.6-12.7-.6-18.6v-12.9zm26 66.2v-66.2h34.9v9.7h-22.6v16.8h21.2v9.7h-21.2v30H519z"/><use xlink:href="#G"/><path d="M630.9 152.4v28.5h-12.3v-66.2h23.3c10.6 0 18.7 3.7 18.7 15.9 0 7.2-1.8 14.8-10.1 16v.2c7.3 1 9.5 5.6 9.5 12 0 2.7-.4 19 2.6 20.9v1.2H649c-1.5-4.2-1.2-12.4-1.3-16.8-.1-4.1 0-9.6-4.2-10.9-3.3-1-6.9-.9-10.4-.9h-2.2zm0-9.8h9.7c4-.3 7.2-2.9 7.2-9.5 0-7.4-3.1-8.7-7.7-8.7H631v18.2zm55 38.3h-12.3v-66.2h19.6l6.6 30.7c1.1 5 1.8 10.2 2.3 15.3h.2c.6-6.5 1.1-10.9 1.9-15.3l6.6-30.7h19.5v66.2H718V160c0-13.2.3-26.3 1.1-39.5h-.2l-13.2 60.3h-7.5l-12.9-60.3h-.4c.8 13.2 1.1 26.3 1.1 39.5v20.9zm52.3 0l15.7-66.2h16.6l14.9 66.2h-13.2l-3.2-16.8h-14.4l-3.2 16.8h-13.2zm18.3-26.5H767l-3.3-18.8c-.6-3.1-.9-6.1-1.2-9.2l-.4-4.4h-.2c-.2 1.4-.4 2.9-.4 4.4l-1.2 9.2-3.8 18.8zm32.5-39.7h41v9.7h-14.3v56.5h-12.3v-56.5H789v-9.7zm49.8 66.2v-66.2h12.3v66.2h-12.3z"/><use xlink:href="#G" x="300.6"/><path d="M948.8 114.7h12.3v66.2h-12.8l-9.6-23.6c-3.2-7.9-5.9-15.9-8.8-26.3h-.2l1.3 18.9c.4 6.6.6 13.2.6 18.5v12.4h-12.3v-66.2H932l9.6 24.1c3.2 7.7 5.8 15.5 8.8 26.3h.2l-1.2-18.8c-.4-6.4-.6-12.7-.6-18.6v-12.9z"/><use xlink:href="#H"/><path d="M487.4 247.8c.5-16.9 1.8-29.4 21.5-29.4s21 12.5 21.5 29.4v9.4c0 17.7-1.3 30.5-21.5 30.5s-21.5-12.9-21.5-30.5v-9.4zm12.7 15.6c0 5.5.4 14.4 8.9 14.4 8.8 0 8.9-9.1 8.9-15.4v-16.9c0-5.3.3-17-8.9-17-9.7 0-8.9 11.6-8.9 16.7v18.2zm55.1 22.8h-12.3V220h19.6l6.6 30.7c1.1 5 1.8 10.2 2.3 15.3h.2c.6-6.5 1.1-10.9 1.9-15.3L580 220h19.5v66.2h-12.3v-20.8c0-13.2.3-26.3 1.1-39.5h-.2l-13.2 60.3h-7.5l-12.9-60.3h-.4c.8 13.2 1.1 26.3 1.1 39.5v20.8zm69.6 0h-12.3V220h19.6l6.6 30.7c1.1 5 1.8 10.2 2.3 15.3h.2c.6-6.5 1.1-10.9 1.9-15.3l6.6-30.7h19.5v66.2h-12.3v-20.8c0-13.2.3-26.3 1.1-39.5h-.2l-13.2 60.3h-7.5l-12.9-60.3h-.4c.8 13.2 1.1 26.3 1.1 39.5v20.8zm86.9-66.2H724v46.2c0 14.7-4.7 21.6-20.8 21.6-16.2 0-21-7-21-21.6V220h12.3v45.1c0 6.4.4 12.7 8.8 12.7 8 0 8.4-6.4 8.4-12.7V220zm54.9 0h12.3v66.2h-12.8l-9.6-23.6c-3.2-7.9-5.9-15.9-8.8-26.3h-.2l1.3 18.9c.4 6.6.6 13.2.6 18.5v12.4h-12.3V220h12.7l9.6 24.1c3.2 7.7 5.8 15.5 8.8 26.3h.2l-1.2-18.8c-.4-6.4-.6-12.7-.6-18.6v-13zm25.6 66.2V220h12.3v66.2h-12.3z"/><use xlink:href="#H" x="380"/><path d="M862.8 286.2l15.7-66.2h16.6l14.9 66.2h-13.2l-3.2-16.8h-14.4l-3.2 16.8h-13.2zm18.4-26.5h10.5l-3.3-18.8c-.6-3.1-.9-6.1-1.2-9.2l-.4-4.4h-.2c-.2 1.4-.4 2.9-.4 4.4l-1.2 9.2-3.8 18.8zm32.5-39.7h41v9.7h-14.3v56.5h-12.3v-56.5h-14.4V220zm49.8 66.2V220h12.3v66.2h-12.3z"/><use xlink:href="#G" x="425.3" y="105.3"/><path d="M1073.5 220h12.3v66.2H1073l-9.6-23.6c-3.2-7.9-5.9-15.9-8.8-26.3h-.2l1.3 18.9c.4 6.6.6 13.2.6 18.5v12.4H1044V220h12.7l9.6 24.1c3.2 7.7 5.8 15.5 8.8 26.3h.2l-1.2-18.8c-.4-6.4-.6-12.7-.6-18.6v-13zM432.7 391.6l15.7-66.2H465l14.9 66.2h-13.2l-3.2-16.8h-14.4l-3.2 16.8h-13.2zm18.4-26.5h10.5l-3.3-18.8c-.6-3.1-.9-6.1-1.2-9.2l-.4-4.4h-.2c-.2 1.4-.4 2.9-.4 4.4l-1.2 9.2-3.8 18.8zm49-2v28.5h-12.3v-66.2h23.3c10.6 0 18.7 3.7 18.7 15.9 0 7.2-1.8 14.8-10.1 16v.2c7.3 1 9.5 5.6 9.5 12 0 2.7-.4 19 2.6 20.9v1.2h-13.5c-1.5-4.2-1.2-12.4-1.3-16.8-.1-4.1 0-9.6-4.2-10.9-3.3-1-6.9-.9-10.4-.9h-2.3zm0-9.7h9.7c4-.3 7.2-2.9 7.2-9.5 0-7.4-3.1-8.7-7.7-8.7h-9.1v18.2zm38.4-28h41v9.7h-14.3v56.5h-12.3v-56.5h-14.4v-9.7z"/></g><defs ><path id="F" d="M971.8 167.2c3.5 2.1 9 3.7 14.4 3.7 7.1 0 10.9-3.4 10.9-8.4 0-4.8-3.2-7.7-10.6-10.9-10.1-4.4-16.4-10.6-16.4-19.3 0-11 8.6-19.4 23.1-19.4 6.4 0 11.2 1.5 14.4 3l-2.7 10.5c-2.3-1.2-6.4-2.9-11.9-2.9-6.8 0-9.8 3.7-9.8 7.4 0 4.8 3.3 7 11.5 10.7 10.7 4.8 15.5 11 15.5 19.8 0 11.7-8.8 20.2-24.4 20.2-6.6 0-13.3-1.8-16.4-3.7l2.4-10.7z"/><path id="G" d="M563.2 142.5c.5-16.9 1.8-29.4 21.5-29.4s21 12.5 21.5 29.4v9.4c0 17.7-1.3 30.5-21.5 30.5s-21.5-12.9-21.5-30.5v-9.4zm12.6 15.6c0 5.5.4 14.4 8.9 14.4 8.8 0 8.9-9.1 8.9-15.4v-16.9c0-5.3.3-17-8.9-17-9.7 0-8.9 11.6-8.9 16.7v18.2z"/><path id="H" d="M476.9 262.7l-.3 3.8c-.6 12.1-4.7 21.4-18.3 21.4-20.2 0-21.5-12.9-21.5-30.5V248c.5-16.9 1.8-29.4 21.5-29.4 11 .2 17.1 5.8 18 17.1.2 1.7.4 3.4.3 5h-12.1c-.5-4.2-.1-12.2-6.1-12.2-9.7 0-8.9 11.6-8.9 16.7v18.4c0 5.5.4 14.4 8.9 14.4 6.8 0 6-10.9 6.2-15.2h12.3z"/></defs></svg>