<?xml version="1.0" standalone="no"?>
<!DOCTYPE svg PUBLIC "-//W3C//DTD SVG 20010904//EN"
 "http://www.w3.org/TR/2001/REC-SVG-20010904/DTD/svg10.dtd">
<svg version="1.0" xmlns="http://www.w3.org/2000/svg"
 width="1582.000000pt" height="1582.000000pt" viewBox="0 0 1582.000000 1582.000000"
 preserveAspectRatio="xMidYMid meet">
<metadata>
Created by potrace 1.14, written by Peter Selinger 2001-2017
</metadata>
<g transform="translate(0.000000,1582.000000) scale(0.100000,-0.100000)"
fill="#000000" stroke="none">
<path d="M410 12107 l0 -3712 3389 0 c1864 0 3393 3 3397 7 5 6 10 7325 5
7406 -1 9 -687 12 -3396 12 l-3395 0 0 -3713z"/>
<path d="M8619 15803 c-1 -23 -1 -7350 0 -7383 l1 -25 3395 0 3395 0 0 3712 0
3713 -3395 0 c-3226 0 -3395 -1 -3396 -17z"/>
<path d="M410 3713 l0 -3713 3395 0 c2709 0 3395 3 3396 13 0 6 1 1674 2 3705
1 2454 -1 3696 -8 3700 -5 4 -1534 7 -3397 7 l-3388 0 0 -3712z"/>
<path d="M8622 7416 c-4 -7 -7 -7308 -3 -7398 1 -17 170 -18 3396 -18 l3395 0
0 3713 0 3712 -3391 0 c-2031 0 -3393 -4 -3397 -9z"/>
</g>
</svg>
